<?xml version="1.0" encoding="iso-8859-1"?>
<!-- Generator: Adobe Illustrator 23.0.4, SVG Export Plug-In . SVG Version: 6.00 Build 0)  -->
<svg version="1.1" id="Layer_1" xmlns="http://www.w3.org/2000/svg" xmlns:xlink="http://www.w3.org/1999/xlink" x="0px" y="0px"
	 viewBox="0 0 260 92" style="enable-background:new 0 0 260 92;" xml:space="preserve">
<path style="fill:#230A58;" d="M33.388,32.519V19.537H46.37c14.44,0,25.963,11.669,25.963,25.963
	c0,14.44-11.669,25.963-25.963,25.963H33.388V58.481H46.37c7.147,0,12.981-5.834,12.981-12.981S53.517,32.519,46.37,32.519H33.388z"
	/>
<path style="fill:#7865FF;" d="M33.388,32.518H20.407v25.963h12.981V32.518z"/>
<path style="fill:#230A58;" d="M105.734,36.019c-1.021-1.021-2.334-1.896-3.792-2.48c-1.459-0.583-3.063-0.875-4.667-0.875H85.46
	v25.963h11.815c1.604,0,3.209-0.292,4.667-0.875c1.459-0.583,2.771-1.459,3.792-2.625c1.167-1.021,1.896-2.334,2.625-3.792
	c0.584-1.459,0.875-3.063,0.875-4.668v-2.188c0-1.604-0.292-3.209-0.875-4.667C107.63,38.353,106.901,37.04,105.734,36.019z
	 M105.734,46.667c0,2.334-0.875,4.23-2.48,5.98c-0.729,0.729-1.605,1.313-2.625,1.75s-2.042,0.584-3.209,0.584h-8.46V36.019h8.46
	c2.334,0,4.23,0.875,5.98,2.48c1.605,1.604,2.48,3.646,2.48,5.98v2.188H105.734z"/>
<path style="fill:#230A58;" d="M126.737,42.583c-1.896-1.75-3.938-2.771-6.564-2.771c-2.48,0-4.668,0.875-6.564,2.771
	c-1.75,1.896-2.771,3.938-2.771,6.564c0,2.48,0.875,4.668,2.771,6.564c0.875,0.875,1.896,1.459,2.917,2.042
	c1.167,0.438,2.334,0.729,3.646,0.729c1.313,0,2.625-0.292,3.792-0.875c1.167-0.583,2.334-1.459,3.501-2.771l-2.334-2.042
	c-1.605,1.75-3.209,2.625-5.105,2.625c-1.75,0-3.209-0.583-4.376-1.896c-1.021-1.021-1.605-1.896-1.75-2.771h15.169l0.146-1.459
	c0-1.313-0.292-2.48-0.729-3.647C128.342,44.333,127.613,43.312,126.737,42.583z M114.194,47.542
	c0.146-0.875,0.729-1.896,1.75-2.917c0.584-0.583,1.167-1.021,1.896-1.313c0.729-0.292,1.604-0.438,2.48-0.438
	c1.605,0,3.063,0.583,4.376,1.896c1.021,1.021,1.605,1.896,1.605,2.917h-12.106V47.542z"/>
<path style="fill:#230A58;" d="M134.322,55.856c0.729,0.729,1.604,1.167,2.625,1.605c1.167,0.438,2.334,0.729,3.501,0.729
	c1.313,0,2.48-0.292,3.647-0.729c1.167-0.438,2.042-1.167,2.917-2.042c1.75-1.896,2.771-3.938,2.771-6.564
	c0-2.625-1.021-4.522-2.771-6.272c-1.75-1.896-3.938-2.771-6.564-2.771c-2.334,0-4.376,0.729-6.126,2.334v-1.167v-8.46h-3.063V57.46
	h3.063V55.856z M144.824,53.376c-1.167,1.167-2.625,1.896-4.376,1.896s-3.209-0.583-4.376-1.896c-1.167-1.167-1.75-2.625-1.75-4.376
	c0-1.75,0.583-3.209,1.75-4.376c1.313-1.313,2.771-1.896,4.376-1.896c0.875,0,1.605,0.146,2.48,0.438
	c0.729,0.292,1.459,0.729,2.042,1.313c1.167,1.167,1.75,2.625,1.75,4.376C146.72,50.751,146.137,52.21,144.824,53.376z"/>
<path style="fill:#230A58;" d="M160.724,39.811c-2.334,0-4.376,0.729-6.126,2.334v-0.292v-1.167v-7.001v-1.167h-3.063v1.167V57.46
	h3.063v-0.584v-0.583v-0.292c0.729,0.729,1.605,1.167,2.625,1.605c1.167,0.438,2.334,0.729,3.501,0.729
	c1.313,0,2.479-0.292,3.647-0.729c1.166-0.438,2.042-1.167,2.916-2.042c1.75-1.896,2.772-3.938,2.772-6.564
	c0-2.48-0.876-4.668-2.626-6.564C165.537,40.687,163.349,39.811,160.724,39.811z M165.099,53.376
	c-1.166,1.167-2.626,1.896-4.375,1.896c-1.75,0-3.209-0.583-4.376-1.896c-1.167-1.167-1.75-2.625-1.75-4.376
	c0-1.75,0.584-3.209,1.75-4.376c1.313-1.313,2.771-1.896,4.376-1.896c0.875,0,1.605,0.146,2.479,0.438
	c0.73,0.292,1.458,0.729,2.042,1.313c1.168,1.167,1.75,2.625,1.75,4.376C166.995,50.751,166.413,52.21,165.099,53.376z"/>
<path style="fill:#230A58;" d="M174.725,32.519h-3.064v3.646h3.064V32.519z"/>
<path style="fill:#230A58;" d="M174.725,38.79h-3.064v19.545h3.064V38.79z"/>
<path style="fill:#230A58;" d="M195,49.146c0-1.313-0.292-2.48-0.73-3.646c-0.438-1.167-1.166-2.188-2.042-2.917
	c-1.896-1.75-3.938-2.771-6.564-2.771c-2.48,0-4.668,0.875-6.564,2.771c-1.75,1.896-2.77,3.938-2.77,6.564
	c0,2.48,0.874,4.668,2.77,6.564c0.876,0.875,1.896,1.459,2.918,2.042c1.166,0.438,2.334,0.729,3.646,0.729
	c1.314,0,2.626-0.292,3.792-0.875c1.168-0.583,2.334-1.459,3.501-2.771l-2.334-2.042c-1.604,1.75-3.21,2.625-5.106,2.625
	c-1.75,0-3.208-0.583-4.376-1.896c-1.02-1.021-1.604-1.896-1.75-2.771h15.169L195,49.146z M179.685,47.542
	c0.146-0.875,0.73-1.896,1.75-2.917c0.584-0.583,1.168-1.021,1.896-1.313c0.73-0.292,1.605-0.438,2.48-0.438
	c1.604,0,3.064,0.583,4.376,1.896c1.022,1.021,1.604,1.896,1.604,2.917h-12.106V47.542z"/>
</svg>
