<?xml version="1.0" encoding="iso-8859-1"?>
<!-- Generator: Adobe Illustrator 23.0.4, SVG Export Plug-In . SVG Version: 6.00 Build 0)  -->
<svg version="1.1" id="Layer_1" xmlns="http://www.w3.org/2000/svg" xmlns:xlink="http://www.w3.org/1999/xlink" x="0px" y="0px"
	 viewBox="0 0 260 92" style="enable-background:new 0 0 260 92;" xml:space="preserve">
<path style="fill:#230A58;" d="M36.734,29.173V12.845h16.327c18.162,0,32.655,14.676,32.655,32.655
	c0,18.162-14.676,32.655-32.655,32.655H36.734V61.827h16.327c8.989,0,16.327-7.338,16.327-16.327s-7.338-16.327-16.327-16.327
	H36.734z"/>
<path style="fill:#7865FF;" d="M36.734,29.172H20.407v32.655h16.327V29.172z"/>
<path style="fill:#230A58;" d="M127.726,33.575c-1.284-1.284-2.935-2.385-4.77-3.119c-1.834-0.734-3.853-1.101-5.87-1.101h-14.86
	v32.655h14.86c2.018,0,4.036-0.367,5.87-1.101s3.486-1.834,4.77-3.302c1.468-1.284,2.385-2.935,3.302-4.77
	c0.734-1.835,1.101-3.853,1.101-5.871v-2.752c0-2.018-0.367-4.036-1.101-5.87C130.111,36.511,129.194,34.86,127.726,33.575z
	 M127.726,46.968c0,2.935-1.101,5.32-3.119,7.522c-0.917,0.917-2.018,1.651-3.302,2.201c-1.284,0.55-2.568,0.734-4.036,0.734h-10.64
	V33.575h10.64c2.935,0,5.32,1.101,7.522,3.119c2.018,2.018,3.119,4.586,3.119,7.522v2.752H127.726z"/>
<path style="fill:#230A58;" d="M154.143,41.831c-2.385-2.201-4.953-3.486-8.255-3.486c-3.119,0-5.871,1.101-8.255,3.486
	c-2.201,2.385-3.486,4.953-3.486,8.255c0,3.119,1.101,5.871,3.486,8.255c1.101,1.101,2.385,1.834,3.669,2.568
	c1.468,0.55,2.935,0.917,4.586,0.917c1.651,0,3.302-0.367,4.77-1.101c1.468-0.734,2.935-1.834,4.403-3.486l-2.935-2.568
	c-2.018,2.201-4.036,3.302-6.421,3.302c-2.201,0-4.036-0.734-5.504-2.385c-1.284-1.284-2.018-2.385-2.201-3.486h19.079l0.183-1.834
	c0-1.651-0.367-3.119-0.917-4.586C156.161,44.032,155.244,42.748,154.143,41.831z M138.366,48.068
	c0.183-1.101,0.917-2.385,2.201-3.669c0.734-0.734,1.468-1.284,2.385-1.651c0.917-0.367,2.018-0.55,3.119-0.55
	c2.018,0,3.853,0.734,5.504,2.385c1.284,1.284,2.018,2.385,2.018,3.669h-15.227V48.068z"/>
<path style="fill:#230A58;" d="M163.683,58.525c0.917,0.917,2.018,1.468,3.302,2.018c1.468,0.55,2.935,0.917,4.403,0.917
	c1.651,0,3.119-0.367,4.586-0.917c1.468-0.55,2.568-1.468,3.669-2.568c2.201-2.385,3.486-4.953,3.486-8.255
	c0-3.302-1.284-5.687-3.486-7.889c-2.201-2.385-4.953-3.486-8.255-3.486c-2.935,0-5.503,0.917-7.705,2.935v-1.468v-10.64h-3.853
	v31.371h3.853V58.525z M176.892,55.407c-1.468,1.468-3.302,2.385-5.504,2.385c-2.201,0-4.036-0.734-5.503-2.385
	c-1.468-1.468-2.201-3.302-2.201-5.504c0-2.201,0.734-4.036,2.201-5.504c1.651-1.651,3.486-2.385,5.503-2.385
	c1.101,0,2.018,0.183,3.119,0.55c0.917,0.367,1.834,0.917,2.568,1.651c1.468,1.468,2.201,3.302,2.201,5.504
	C179.277,52.104,178.543,53.939,176.892,55.407z"/>
<path style="fill:#230A58;" d="M196.889,38.345c-2.935,0-5.504,0.917-7.705,2.935v-0.367v-1.468V30.64v-1.468h-3.853v1.468v29.903
	h3.853v-0.734v-0.734v-0.367c0.917,0.917,2.018,1.468,3.302,2.018c1.468,0.55,2.935,0.917,4.403,0.917
	c1.652,0,3.118-0.367,4.587-0.917c1.467-0.55,2.568-1.468,3.668-2.568c2.201-2.385,3.486-4.953,3.486-8.255
	c0-3.119-1.101-5.871-3.303-8.255C202.943,39.446,200.191,38.345,196.889,38.345z M202.392,55.407
	c-1.467,1.468-3.303,2.385-5.503,2.385c-2.201,0-4.036-0.734-5.504-2.385c-1.468-1.468-2.201-3.302-2.201-5.504
	c0-2.201,0.734-4.036,2.201-5.504c1.651-1.651,3.486-2.385,5.504-2.385c1.101,0,2.019,0.183,3.118,0.55
	c0.918,0.367,1.834,0.917,2.568,1.651c1.469,1.468,2.201,3.302,2.201,5.503C204.777,52.104,204.045,53.939,202.392,55.407z"/>
<path style="fill:#230A58;" d="M214.499,29.173h-3.853v4.586h3.853V29.173z"/>
<path style="fill:#230A58;" d="M214.499,37.061h-3.853v24.583h3.853V37.061z"/>
<path style="fill:#230A58;" d="M240,50.086c0-1.651-0.367-3.119-0.918-4.586c-0.551-1.468-1.467-2.752-2.568-3.669
	c-2.385-2.201-4.953-3.486-8.255-3.486c-3.119,0-5.871,1.101-8.255,3.486c-2.201,2.385-3.484,4.953-3.484,8.255
	c0,3.119,1.1,5.871,3.484,8.255c1.101,1.101,2.385,1.834,3.67,2.568c1.467,0.55,2.935,0.917,4.586,0.917
	c1.652,0,3.303-0.367,4.769-1.101c1.469-0.734,2.935-1.834,4.404-3.486l-2.935-2.568c-2.018,2.201-4.037,3.302-6.421,3.302
	c-2.201,0-4.035-0.734-5.504-2.385c-1.283-1.284-2.018-2.385-2.201-3.486h19.079L240,50.086z M220.737,48.068
	c0.184-1.101,0.918-2.385,2.201-3.669c0.734-0.734,1.469-1.284,2.385-1.651c0.918-0.367,2.019-0.55,3.119-0.55
	c2.018,0,3.853,0.734,5.504,2.385c1.285,1.284,2.018,2.385,2.018,3.669h-15.226V48.068z"/>
</svg>
